HIERARCHY
ROOT Hips
{
  OFFSET 5.91407 39.2545 -15.4989
  CHANNELS 6 Xposition Yposition Zposition Zrotation Xrotation Yrotation
  JOINT LeftHip
  {
    OFFSET 3.43 0 0
    CHANNELS 6 Xposition Yposition Zposition Zrotation Xrotation Yrotation
    JOINT LeftKnee
    {
      OFFSET 0 -18.47 0
      CHANNELS 6 Xposition Yposition Zposition Zrotation Xrotation Yrotation
      JOINT LeftAnkle
      {
        OFFSET 0 -17.95 0
        CHANNELS 6 Xposition Yposition Zposition Zrotation Xrotation Yrotation
        End Site
        {
          OFFSET 0 -3.12 0
        }
      }
    }
  }
  JOINT RightHip
  {
    OFFSET -3.43 0 0
    CHANNELS 6 Xposition Yposition Zposition Zrotation Xrotation Yrotation
    JOINT RightKnee
    {
      OFFSET 0 -18.47 0
      CHANNELS 6 Xposition Yposition Zposition Zrotation Xrotation Yrotation
      JOINT RightAnkle
      {
        OFFSET 0 -17.95 0
        CHANNELS 6 Xposition Yposition Zposition Zrotation Xrotation Yrotation
        End Site
        {
          OFFSET 0 -3.12 0
        }
      }
    }
  }
  JOINT Chest
  {
    OFFSET 0 4.57 0
    CHANNELS 6 Xposition Yposition Zposition Zrotation Xrotation Yrotation
    JOINT CS_BVH
    {
      OFFSET 0 6.57 0
      CHANNELS 6 Xposition Yposition Zposition Zrotation Xrotation Yrotation
      JOINT LeftCollar
      {
        OFFSET 1.06 4.19 1.76
        CHANNELS 6 Xposition Yposition Zposition Zrotation Xrotation Yrotation
        JOINT LeftShoulder
        {
          OFFSET 5.81 0 0
          CHANNELS 6 Xposition Yposition Zposition Zrotation Xrotation Yrotation
          JOINT LeftElbow
          {
            OFFSET 0 -12.08 0
            CHANNELS 6 Xposition Yposition Zposition Zrotation Xrotation Yrotation
            JOINT LeftWrist
            {
              OFFSET 0 -9.82 0
              CHANNELS 6 Xposition Yposition Zposition Zrotation Xrotation Yrotation
              End Site
              {
                OFFSET 0 -7.37 0
              }
            }
          }
        }
      }
      JOINT RightCollar
      {
        OFFSET -1.06 4.19 1.76
        CHANNELS 6 Xposition Yposition Zposition Zrotation Xrotation Yrotation
        JOINT RightShoulder
        {
          OFFSET -6.06 0 0
          CHANNELS 6 Xposition Yposition Zposition Zrotation Xrotation Yrotation
          JOINT RightElbow
          {
            OFFSET 0 -11.08 0
            CHANNELS 6 Xposition Yposition Zposition Zrotation Xrotation Yrotation
            JOINT RightWrist
            {
              OFFSET 0 -9.82 0
              CHANNELS 6 Xposition Yposition Zposition Zrotation Xrotation Yrotation
              End Site
              {
                OFFSET 0 -7.14001 0
              }
            }
          }
        }
      }
      JOINT Neck
      {
        OFFSET 0 4.05 0
        CHANNELS 6 Xposition Yposition Zposition Zrotation Xrotation Yrotation
        JOINT Head
        {
          OFFSET 0 5.19 0
          CHANNELS 6 Xposition Yposition Zposition Zrotation Xrotation Yrotation
          End Site
          {
            OFFSET 0 4.14001 0
          }
        }
      }
    }
  }
}
MOTION
Frames:	7
Frame Time:	0.0333333
17.154 39.4987 -5.48742 0.749325 0.00619048 -0.00475273 3.43 9.12756e-010 -1.60032e-011 1.7277 -6.51951 0.516297 1.57372e-008 -18.47 1.10541e-007 1.46624 24.5749 17.2609 1.5558e-008 -17.95 3.38894e-008 -9.36254 -15.9447 -1.08662 -3.43 -9.12749e-010 1.60023e-011 -4.68743 -3.16876 -1.43542 4.27853e-008 -18.47 -1.42709e-007 1.53219 24.5301 -7.78832 -2.59563e-008 -17.95 2.98131e-008 5.51277 -20.7013 1.02884 -1.05168e-009 4.57 4.29798e-011 -1.41616 0.251992 0.288201 -1.67976e-009 6.57 2.67812e-010 -0.541721 0.475406 0.679036 1.06 4.19 1.76 9.88789 0.650598 -0.813263 5.81 -5.77685e-010 -2.42139e-010 79.4133 -5.87666 -0.530836 -4.70036e-009 -12.08 6.73172e-010 2.47981 -0.00931172 10.5099 -1.10605e-009 -9.82 -1.29618e-009 -3.28218 1.29975 -0.197262 -1.06 4.19 1.76 -9.14758 0.416037 1.7419 -6.06 -5.89036e-008 -4.70616e-010 -76.7002 -1.28406 -20.0001 -7.10448e-009 -11.08 -5.62306e-011 -3.65867 -0.523001 23.8156 -1.10928e-009 -9.82 1.29577e-009 6.89373 -12.9589 0.689442 4.66962e-010 4.05 1.19922e-010 5.86033 1.35747 18.9537 3.38399e-009 5.19 -2.27068e-010 -3.32676 8.9565 21.4018 
17.1719 39.5017 -5.50906 0.709047 0.0202168 0.0251537 3.43 9.12756e-010 -1.60032e-011 1.74441 -6.68612 0.503645 1.57372e-008 -18.47 1.10541e-007 1.47552 24.7819 17.3402 1.5558e-008 -17.95 3.38894e-008 -9.37183 -15.9969 -1.0869 -3.43 -9.12749e-010 1.60023e-011 -4.69472 -3.29372 -1.44582 4.27853e-008 -18.47 -1.42709e-007 1.58981 24.6382 -7.92425 -2.59563e-008 -17.95 2.98131e-008 5.51544 -20.6977 1.02882 -1.05168e-009 4.57 4.29798e-011 -1.41627 0.274482 0.288202 -1.67976e-009 6.57 2.67812e-010 -0.518332 0.519148 0.68258 1.06 4.19 1.76 10.0286 0.711111 -0.724781 5.81 -5.77685e-010 -2.42139e-010 79.3005 -5.90933 -0.626052 -4.70036e-009 -12.08 6.73172e-010 2.4381 -0.00930771 10.6421 -1.10605e-009 -9.82 -1.29618e-009 -3.36628 1.29454 -0.197261 -1.06 4.19 1.76 -9.04116 0.481742 1.62624 -6.06 -5.89036e-008 -4.70616e-010 -76.6909 -1.29088 -20.0316 -7.10448e-009 -11.08 -5.62306e-011 -3.67071 -0.515941 23.4901 -1.10928e-009 -9.82 1.29577e-009 7.22385 -13.0054 0.689571 4.66962e-010 4.05 1.19922e-010 5.86967 1.31575 19.1476 3.38399e-009 5.19 -2.27068e-010 -3.36624 8.91934 21.5669 
17.194 39.5015 -5.53878 0.743215 0.0917012 0.0463133 3.43 9.12756e-010 -1.60032e-011 1.61437 -6.79061 0.401045 1.57372e-008 -18.47 1.10541e-007 1.55795 24.759 17.4213 1.5558e-008 -17.95 3.38894e-008 -9.37633 -15.9356 -1.08657 -3.43 -9.12749e-010 1.60023e-011 -4.78565 -3.41978 -1.4924 4.27853e-008 -18.47 -1.42709e-007 1.62605 24.6572 -7.92243 -2.59563e-008 -17.95 2.98131e-008 5.52554 -20.6559 1.02854 -1.05168e-009 4.57 4.29798e-011 -1.41383 0.282433 0.288202 -1.67976e-009 6.57 2.67812e-010 -0.532188 0.544253 0.703297 1.06 4.19 1.76 10.1779 0.757836 -0.607818 5.81 -5.77685e-010 -2.42139e-010 79.0632 -5.90844 -0.628123 -4.70036e-009 -12.08 6.73172e-010 2.44614 -0.00931043 10.5525 -1.10605e-009 -9.82 -1.29618e-009 -3.17327 1.24353 -0.196202 -1.06 4.19 1.76 -9.05639 0.514994 1.58904 -6.06 -5.89036e-008 -4.70616e-010 -76.4961 -1.1651 -20.0728 -7.10448e-009 -11.08 -5.62306e-011 -3.72923 -0.510961 23.3268 -1.10928e-009 -9.82 1.29577e-009 7.31376 -12.981 0.695203 4.66962e-010 4.05 1.19922e-010 5.87119 1.29282 19.3255 3.38399e-009 5.19 -2.27068e-010 -3.54345 8.83355 21.7747 
17.2011 39.5012 -5.56049 0.810086 0.20642 0.0937823 3.43 9.12756e-010 -1.60032e-011 1.51563 -6.89172 0.312072 1.57372e-008 -18.47 1.10541e-007 1.55915 24.6649 17.3838 1.5558e-008 -17.95 3.38894e-008 -9.3219 -15.8755 -1.08524 -3.43 -9.12749e-010 1.60023e-011 -4.86262 -3.57923 -1.5055 4.27853e-008 -18.47 -1.42709e-007 1.61881 24.6975 -7.9283 -2.59563e-008 -17.95 2.98131e-008 5.54214 -20.6469 1.02847 -1.05168e-009 4.57 4.29798e-011 -1.4096 0.285833 0.273608 -1.67976e-009 6.57 2.67812e-010 -0.56502 0.538692 0.669373 1.06 4.19 1.76 10.1306 0.742592 -0.532346 5.81 -5.77685e-010 -2.42139e-010 78.9752 -5.7925 -0.648981 -4.70036e-009 -12.08 6.73172e-010 2.45113 -0.00930588 10.7017 -1.10605e-009 -9.82 -1.29618e-009 -3.1859 1.18011 -0.191869 -1.06 4.19 1.76 -9.30742 0.516588 1.45919 -6.06 -5.89036e-008 -4.70616e-010 -76.0995 -1.21706 -20.1351 -7.10448e-009 -11.08 -5.62306e-011 -3.79926 -0.507967 23.4651 -1.10928e-009 -9.82 1.29577e-009 7.35036 -13.0092 0.700351 4.66962e-010 4.05 1.19922e-010 5.86456 1.30957 19.457 3.38399e-009 5.19 -2.27068e-010 -3.96945 8.78555 22.1306 
17.1997 39.5028 -5.59223 0.727422 0.222961 0.0993956 3.43 9.12756e-010 -1.60032e-011 1.64317 -7.05574 0.359505 1.57372e-008 -18.47 1.10541e-007 1.49336 24.8577 17.3489 1.5558e-008 -17.95 3.38894e-008 -9.29802 -15.931 -1.0826 -3.43 -9.12749e-010 1.60023e-011 -4.74218 -3.64731 -1.41515 4.27853e-008 -18.47 -1.42709e-007 1.57593 24.6869 -8.00205 -2.59563e-008 -17.95 2.98131e-008 5.57041 -20.5841 1.02805 -1.05168e-009 4.57 4.29798e-011 -1.40628 0.318568 0.264942 -1.67976e-009 6.57 2.67812e-010 -0.536956 0.603017 0.647149 1.06 4.19 1.76 10.0796 0.834797 -0.384704 5.81 -5.77685e-010 -2.42139e-010 79.0563 -5.70298 -0.854929 -4.70036e-009 -12.08 6.73172e-010 2.38043 -0.00930539 10.7179 -1.10605e-009 -9.82 -1.29618e-009 -3.16687 1.02022 -0.187931 -1.06 4.19 1.76 -9.1296 0.618425 1.28626 -6.06 -5.89036e-008 -4.70616e-010 -76.1929 -1.35469 -20.1749 -7.10448e-009 -11.08 -5.62306e-011 -3.79123 -0.507224 23.2726 -1.10928e-009 -9.82 1.29577e-009 7.65043 -13.031 0.71535 4.66962e-010 4.05 1.19922e-010 5.94105 1.33176 19.7391 3.38399e-009 5.19 -2.27068e-010 -4.21144 8.89872 22.5356 
17.2016 39.5032 -5.62973 0.636639 0.249348 0.0341744 3.43 9.12756e-010 -1.60032e-011 1.75983 -7.21096 0.434392 1.57372e-008 -18.47 1.10541e-007 1.44282 25.0031 17.4173 1.5558e-008 -17.95 3.38894e-008 -9.28741 -15.9454 -1.0802 -3.43 -9.12749e-010 1.60023e-011 -4.6223 -3.70333 -1.32588 4.27853e-008 -18.47 -1.42709e-007 1.53261 24.6126 -8.01141 -2.59563e-008 -17.95 2.98131e-008 5.57859 -20.4852 1.02739 -1.05168e-009 4.57 4.29798e-011 -1.4041 0.36188 0.280521 -1.67976e-009 6.57 2.67812e-010 -0.486306 0.687456 0.679333 1.06 4.19 1.76 10.0006 0.96246 -0.220285 5.81 -5.77685e-010 -2.42139e-010 79.1492 -5.62246 -1.01735 -4.70036e-009 -12.08 6.73172e-010 2.33938 -0.00931508 10.3977 -1.10605e-009 -9.82 -1.29618e-009 -2.98689 0.843476 -0.183143 -1.06 4.19 1.76 -8.95295 0.732285 1.21683 -6.06 -5.89036e-008 -4.70616e-010 -76.3179 -1.33463 -20.1112 -7.10448e-009 -11.08 -5.62306e-011 -3.74184 -0.506119 23.067 -1.10928e-009 -9.82 1.29577e-009 7.70708 -13.0453 0.721916 4.66962e-010 4.05 1.19922e-010 5.9897 1.31457 20.2198 3.38399e-009 5.19 -2.27068e-010 -4.32444 8.93729 22.9765 
17.2052 39.5044 -5.65772 0.637782 0.264274 0.0310503 3.43 9.12756e-010 -1.60032e-011 1.75476 -7.28458 0.435735 1.57372e-008 -18.47 1.10541e-007 1.41986 25.0222 17.4576 1.5558e-008 -17.95 3.38894e-008 -9.26115 -15.91 -1.07786 -3.43 -9.12749e-010 1.60023e-011 -4.65869 -3.7967 -1.36398 4.27853e-008 -18.47 -1.42709e-007 1.60994 24.6581 -8.05826 -2.59563e-008 -17.95 2.98131e-008 5.54269 -20.4527 1.02717 -1.05168e-009 4.57 4.29798e-011 -1.40441 0.401989 0.283123 -1.67976e-009 6.57 2.67812e-010 -0.496458 0.765855 0.705538 1.06 4.19 1.76 9.99418 1.05557 -0.40494 5.81 -5.77685e-010 -2.42139e-010 79.0758 -5.21213 -1.12267 -4.70036e-009 -12.08 6.73172e-010 2.36251 -0.00931236 10.4888 -1.10605e-009 -9.82 -1.29618e-009 -3.00237 0.63298 -0.18512 -1.06 4.19 1.76 -8.95052 0.838011 1.1662 -6.06 -5.89036e-008 -4.70616e-010 -76.219 -1.25073 -20.0038 -7.10448e-009 -11.08 -5.62306e-011 -3.71857 -0.504109 22.9458 -1.10928e-009 -9.82 1.29577e-009 7.60865 -13.168 0.724953 4.66962e-010 4.05 1.19922e-010 6.06969 1.40551 20.567 3.38399e-009 5.19 -2.27068e-010 -4.81018 8.72654 23.5117 
